<svg id="Layer_1" data-name="Layer 1" xmlns="http://www.w3.org/2000/svg" viewBox="0 0 602.14 729.49"><defs><style>.cls-1{fill:#4a54a4;}.cls-2{fill:#f38eb6;}</style></defs><path class="cls-1" d="M307.06,24.53,6,460.7,307.06,754,608.14,460.7Zm-199,428.59-4.22,37.19-30.39-2.93,11.21-21.1-2.45-11-6.86,13.45L68,454.17l-15.82,6.64H42.07l56.51-63.58,9.51,14-7.91,28.95Zm202-160.07L298,315.33l15.53,13-11.83,60.44L273.54,410.6l9.92,49.91-24.58,26.87L244.13,595.57l-17-172.8-22.34-5.63-7.73,30.92-22.56-34.53-17.37-15.67,17.14-21.45,21.92-17.14L202,370l26.3-14.88L274.91,258l33-40.91,2.2,21.41-7.18,11.23,10.59.1-3.46,26.45-6.29,4.61Zm109.32,210.2-14.33,12-15.76-71.92,4.3-27.23-4.16-13.82-1.71-26.09-13.6-18.48-2.43-29.6L363.15,305l15.65-10-.45,12.19,24.58,40.41L418.31,394l-13.05,37.58,13.05,16.82,14,94.35Zm-3-174.32L382.1,283.3l-23.54,9.81-31.4-78-20.1-16.19-41.22,52.49-44.15,90.27L183.91,351l-46.48,41.57-42.81-7.72L25,460.51,307.06,48.61l282.12,411.9-108-65.91L450.78,403Zm71,146.52L469.21,450.5l-6.44-30.64-6-8.89,23.55-7.54-.39,6.43,5.39,11.6-.79,11.88,16.47,9-3.33,23.85,8.5,21.06Z" transform="translate(-6 -24.53)"/><polygon class="cls-2" points="500.12 462.74 481.45 450.91 463.21 425.97 456.77 395.32 450.72 386.44 474.27 378.89 473.88 385.33 479.27 396.93 478.48 408.81 494.95 417.82 491.62 441.68 500.12 462.74"/><polygon class="cls-2" points="426.33 518.18 413.42 478.71 399.09 490.75 383.33 418.83 387.63 391.61 383.47 377.79 381.76 351.7 368.16 333.22 365.73 303.62 357.15 280.44 372.8 270.48 372.35 282.66 396.93 323.08 412.31 369.42 399.26 407.01 412.31 423.83 426.33 518.18"/><polygon class="cls-2" points="94.18 415.61 102.09 428.59 97.87 465.77 67.48 462.85 78.69 441.75 76.24 430.7 69.38 444.15 62 429.64 46.18 436.27 36.07 436.27 92.58 372.7 102.09 386.65 94.18 415.61"/><polygon class="cls-2" points="291.95 290.8 307.48 303.81 295.65 364.24 267.54 386.07 277.46 435.98 252.88 462.85 238.13 571.04 221.12 398.24 198.78 392.61 191.05 423.53 168.49 389 151.12 373.33 168.26 351.88 190.18 334.74 195.97 345.44 222.27 330.55 268.91 233.5 301.9 192.59 304.1 214 296.92 225.23 307.51 225.33 304.05 251.78 297.75 256.39 304.1 268.52 291.95 290.8"/><polygon class="cls-2" points="583.18 435.98 475.2 370.07 444.78 378.47 410.44 304.39 376.1 258.77 352.56 268.58 321.15 190.58 301.06 174.38 259.84 226.88 215.69 317.15 177.91 326.47 131.43 368.04 88.62 360.32 18.95 435.98 301.06 24.08 583.18 435.98"/></svg>